<svg width="56" height="56" viewBox="0 0 56 56" fill="none" xmlns="http://www.w3.org/2000/svg">
<rect x="0.5" y="0.5" width="55" height="55" rx="7.5" fill="#E0E0E0"/>
<rect x="0.5" y="0.5" width="55" height="55" rx="7.5" stroke="#AFB1B6"/>
<mask id="mask0_467_119" style="mask-type:luminance" maskUnits="userSpaceOnUse" x="18" y="18" width="20" height="20">
<path fill-rule="evenodd" clip-rule="evenodd" d="M18.0004 18.0002H37.96V37.95H18.0004V18.0002Z" fill="white"/>
</mask>
<g mask="url(#mask0_467_119)">
<path fill-rule="evenodd" clip-rule="evenodd" d="M23.6504 19.5C21.1294 19.5 19.5004 21.227 19.5004 23.899V32.051C19.5004 34.724 21.1294 36.45 23.6504 36.45H32.3004C34.8274 36.45 36.4604 34.724 36.4604 32.051V23.899C36.4604 21.227 34.8274 19.5 32.3004 19.5H23.6504ZM32.3004 37.95H23.6504C20.2704 37.95 18.0004 35.579 18.0004 32.051V23.899C18.0004 20.371 20.2704 18 23.6504 18H32.3004C35.6854 18 37.9604 20.371 37.9604 23.899V32.051C37.9604 35.579 35.6854 37.95 32.3004 37.95Z" fill="#AFB1B6"/>
</g>
<path fill-rule="evenodd" clip-rule="evenodd" d="M21.2814 33.1804C21.0954 33.1804 20.9104 33.1124 20.7654 32.9744C20.4644 32.6904 20.4524 32.2144 20.7374 31.9154L22.2654 30.3024C23.0744 29.4434 24.4394 29.4014 25.3024 30.2114L26.2604 31.1834C26.5274 31.4534 26.9614 31.4584 27.2294 31.1944C27.3304 31.0754 29.5084 28.4304 29.5084 28.4304C29.9224 27.9284 30.5064 27.6184 31.1554 27.5544C31.8054 27.4974 32.4364 27.6864 32.9394 28.0994C32.9824 28.1344 33.0214 28.1684 35.2174 30.4234C35.5064 30.7194 35.5014 31.1944 35.2044 31.4834C34.9084 31.7744 34.4324 31.7654 34.1434 31.4694C34.1434 31.4694 32.0944 29.3664 31.9484 29.2244C31.7934 29.0974 31.5444 29.0234 31.2994 29.0474C31.0504 29.0724 30.8264 29.1914 30.6674 29.3844C28.3434 32.2034 28.3154 32.2304 28.2774 32.2674C27.4194 33.1094 26.0344 33.0954 25.1914 32.2354C25.1914 32.2354 24.2614 31.2914 24.2454 31.2724C24.0144 31.0584 23.6024 31.0724 23.3554 31.3334L21.8254 32.9464C21.6774 33.1024 21.4794 33.1804 21.2814 33.1804Z" fill="#AFB1B6"/>
<path fill-rule="evenodd" clip-rule="evenodd" d="M24.5576 24.1289C24.0046 24.1289 23.5546 24.5789 23.5546 25.1329C23.5546 25.6869 24.0046 26.1379 24.5586 26.1379C25.1126 26.1379 25.5636 25.6869 25.5636 25.1329C25.5636 24.5799 25.1126 24.1299 24.5576 24.1289ZM24.5586 27.6379C23.1776 27.6379 22.0546 26.5139 22.0546 25.1329C22.0546 23.7519 23.1776 22.6289 24.5586 22.6289C25.9406 22.6299 27.0636 23.7539 27.0636 25.1329C27.0636 26.5139 25.9396 27.6379 24.5586 27.6379Z" fill="#AFB1B6"/>
</svg>
